Complete name : In Their Skin.mp4
Format : MPEG-4
Format profile : Base Media
Codec ID : isom
File size : 1.12 GiB
Duration : 1h 36mn
Overall bit rate mode : Variable
Overall bit rate : 1 656 Kbps
Movie name : In Their Skin
Performer : Jeremy Power Regimbal
Genre : Thriller
Recorded date : UTC 2012-11-09 08:00:00
Tagged date : UTC 2012-10-17 05:33:41
Writing application : Lavf54.0.100
Cover : Yes

Video
ID : 1
Format : MPEG-4 Visual
Format profile : Simple@L1
Format settings, BVOP : No
Format settings, QPel : No
Format settings, GMC : No warppoints
Format settings, Matrix : Default (H.263)
Codec ID : 20
Duration : 1h 36mn
Bit rate mode : Variable
Bit rate : 1 499 Kbps
Maximum bit rate : 6 533 Kbps
Width : 852 pixels
Height : 348 pixels
Display aspect ratio : 2.40:1
Frame rate mode : Constant
Frame rate : 23.976 fps
Color space : YUV
Chroma subsampling : 4:2:0
Bit depth : 8 bits
Scan type : Progressive
Compression mode : Lossy
Bits/(Pixel*Frame) : 0.211
Stream size : 1.01 GiB (91%)
Writing library : Lavc54.1.100

Audio
ID : 2
Format : AAC
Format/Info : Advanced Audio Codec
Format profile : LC
Codec ID : 40
Duration : 1h 36mn
Bit rate mode : Variable
Bit rate : 152 Kbps
Maximum bit rate : 228 Kbps
Channel(s) : 2 channels
Channel positions : Front: L R
Sampling rate : 44.1 KHz
Compression mode : Lossy
Delay relative to video : -23ms
Stream size : 105 MiB (9%)
Language : English

Source Used: Own

Greets to all at DQ1 
 
http://www.shotpix.com/images/30833180425747792662.png 
http://www.shotpix.com/images/49036477797050705455.png 
http://www.shotpix.com/images/71096374599084693158.png 
http://www.shotpix.com/images/80277755345553400657.png
